<?xml version="1.0" encoding="UTF-8"?>
<svg id="Layer_1" data-name="Layer 1" xmlns="http://www.w3.org/2000/svg" viewBox="0 0 18 18">
  <defs>
    <style>
      .cls-1 {
        fill: #e7c157;
      }
    </style>
  </defs>
  <path class="cls-1" d="M5.69,3.61c2.31,3.42.68,6.41-2.1,9.32-.18.19-.14.23.1.38.18.11.37.32.47.52.16.41.35.28.68.43.19.08.34.26.48.35.09.07.2.1.31.07.33-.07.7-.05,1.05-.1.3-.05.58.02.89.05.23,0,.69.06.76-.21-.03-.61-.07-1.4-.03-2.1.02-.2-.02-.57.07-.57.05.01.09.06.13.09.23.22.71.7.7,1.1.02.23-.05.45,0,.68.11.45.59.44.95.37.44-.04.86-.19,1.28-.33.77-.2,1.24-.08,1.7-.87.19-.36.23-.76.14-1.11-.08-.23-.27-.38-.47-.53-.09-.09-.54-.3-.33-.36.19-.08.62-.13.9-.09.38,0,.8.27,1.08-.08.26-.35.64-.75.67-1.21,0-.26-.09-.54-.08-.8,0-.17.08-.32.14-.48.11-.25.13-.57.03-.83-.19-.37-.18-.73-.29-1.16-.13-.49-.19-1.09-.39-1.5-.11-.22-.24-.47-.41-.64-.15-.13-.35.01-.51.09-.32.17-.66.37-.95.57-.69.48-1.21.97-2.06,1.17-.77.2-1.35.2-2.21,0-.23-.06-1.26-.62-1.42-.8l-1.28-1.4Z"/>
</svg>