<?xml version="1.0" encoding="UTF-8"?>
<svg id="Layer_1" xmlns="http://www.w3.org/2000/svg" version="1.1" viewBox="0 0 18 18">
  <!-- Generator: Adobe Illustrator 30.1.0, SVG Export Plug-In . SVG Version: 2.1.1 Build 136)  -->
  <defs>
    <style>
      .st0 {
        fill: #f8c62a;
      }
    </style>
  </defs>
  <path class="st0" d="M2.8,8.3c.6-.5,2.7,1.6,3.5,1.6s.6.1.8,0,.4-1.7-.2-3.3-.1-2.2-.1-2.2l.4.2s-.9.2.8,4.8c.4,1.1,1.7,3.8,1.9,3.8.2,0,2.4.2,2.8.3.5.3.7.4.7.4,0,0,.5.2.5.7s-.2,1.1,0,1.3-1.2.7-1.3.5c-.1-.2-1.9-1.9-2.6-2.5-.1-.1-.3-.2-.5-.3-.3,0-.7-.2-1.2-.6-.7-.2-1-.2-1.6-.8,0,0-1.4-.2-2.5-1.4s-1.5-1.2-1.5-2.5h0Z"/>
</svg>