<?xml version="1.0" encoding="UTF-8"?>
<svg id="Layer_1" data-name="Layer 1" xmlns="http://www.w3.org/2000/svg" viewBox="0 0 18 18">
  <defs>
    <style>
      .cls-1 {
        fill: #e7c157;
      }
    </style>
  </defs>
  <path class="cls-1" d="M14.54,5.43c-3.46,2.25-6.43.57-9.29-2.26-.19-.19-.23-.15-.38.09-.12.18-.32.37-.53.47-.42.15-.29.34-.44.67-.08.19-.26.34-.35.47-.07.09-.11.2-.07.31.06.33.04.71.08,1.05.04.3-.03.58-.06.89-.01.23-.07.69.2.77.61-.02,1.4-.04,2.1,0,.2.02.57-.01.56.08-.01.05-.06.09-.09.13-.22.23-.71.69-1.11.68-.23.01-.45-.06-.68,0-.45.1-.45.58-.39.94.03.44.17.87.31,1.29.19.77.06,1.24.84,1.71.35.2.76.24,1.11.15.23-.07.39-.26.54-.46.09-.09.31-.54.37-.33.08.19.11.63.08.9-.01.38-.28.79.06,1.08.34.26.74.66,1.2.69.26.01.55-.09.8-.07.17,0,.32.09.47.15.25.11.57.14.83.04.37-.18.73-.17,1.16-.27.49-.13,1.09-.17,1.51-.36.22-.11.48-.23.65-.4.13-.15,0-.35-.08-.51-.17-.32-.35-.66-.55-.96-.46-.7-.95-1.22-1.14-2.08-.19-.78-.18-1.35.04-2.21.06-.23.65-1.25.82-1.41l1.43-1.26Z"/>
</svg>