<?xml version="1.0" encoding="UTF-8"?>
<svg id="Layer_1" xmlns="http://www.w3.org/2000/svg" version="1.1" viewBox="0 0 18 18">
  <!-- Generator: Adobe Illustrator 30.1.0, SVG Export Plug-In . SVG Version: 2.1.1 Build 136)  -->
  <defs>
    <style>
      .st0 {
        fill: #f7c040;
      }

      .st1 {
        fill: #f9d34e;
      }
    </style>
  </defs>
  <path class="st0" d="M-34.4.6c3.4,5.2,1,9.7-3.1,14.2-.3.3-.2.3.1.6.3.2.5.5.7.8.2.6.5.4,1,.7.3.1.5.4.7.5,0,.1.3.2.5.1.5-.1,1,0,1.5-.2h1.3c.3,0,1,0,1.1-.3,0-.9,0-2.1,0-3.2,0-.3,0-.9,0-.9,0,0,0,0,.2.1.3.3,1,1.1,1,1.7v1c.2.7.9.7,1.4.6.6,0,1.3-.3,1.9-.5,1.1-.3,1.8-.1,2.5-1.3.3-.5.3-1.2.2-1.7-.1-.3-.4-.6-.7-.8-.1-.1-.8-.5-.5-.5.3-.1.9-.2,1.3-.1.6,0,1.2.4,1.6-.1.4-.5.9-1.1,1-1.8,0-.4-.1-.8-.1-1.2s.1-.5.2-.7c.2-.4.2-.9,0-1.3-.3-.6-.3-1.1-.4-1.8-.2-.7-.3-1.7-.6-2.3-.2-.3-.4-.7-.6-1-.2-.2-.5,0-.7.1-.5.3-1,.6-1.4.9-1,.7-1.8,1.5-3,1.8-1.1.3-2,.3-3.2,0-.3,0-1.8-.9-2.1-1.2l-1.9-2.2h0Z"/>
  <path class="st1" d="M6,1.5s0,1.7,1.1,5.4-1.8,8.6-1.2,9.1,1.4.2,1.7,0,1.5-.2,1.7-.6.4-1.2,0-2c0,0,.5,1.4,1.4.7s1-.3.9-1c1,1.1,1.1-.8,3-.4,1,0,1.5-.7,1.5-.7,0,0-1.5-.5-3.9-1.7S6.8,7.8,6.4,1.6l-.4-.2Z"/>
</svg>